<?xml version="1.0" encoding="utf-8"?>
<!-- Generator: Adobe Illustrator 24.0.1, SVG Export Plug-In . SVG Version: 6.00 Build 0)  -->
<svg version="1.1" xmlns="http://www.w3.org/2000/svg" xmlns:xlink="http://www.w3.org/1999/xlink" x="0px" y="0px"
	 viewBox="0 0 1920 1080" style="enable-background:new 0 0 1920 1080;" xml:space="preserve">
<style type="text/css">
	.st0{fill:#CDA18E;stroke:#000000;stroke-miterlimit:10;}
	.st1{fill:#333333;}
	.st2{fill:#4D4D4D;stroke:#000000;stroke-miterlimit:10;}
	.st3{stroke:#000000;stroke-miterlimit:10;}
	.st4{fill:#1A1A1A;stroke:#000000;stroke-miterlimit:10;}
	.st5{fill:#999999;stroke:#000000;stroke-miterlimit:10;}
	.st6{fill:#F7931E;stroke:#000000;stroke-miterlimit:10;}
	.st7{fill:#FF8F7E;stroke:#000000;stroke-miterlimit:10;}
	.st8{fill:#FFFFFF;stroke:#000000;stroke-miterlimit:10;}
	.st9{fill-rule:evenodd;clip-rule:evenodd;fill:#FFFFFF;}
	.st10{fill-rule:evenodd;clip-rule:evenodd;fill:#999999;}
	.st11{fill-rule:evenodd;clip-rule:evenodd;fill:#CCCCCC;}
	.st12{fill-rule:evenodd;clip-rule:evenodd;}
	.st13{fill:#C1272D;stroke:#000000;stroke-miterlimit:10;}
	.st14{fill:none;stroke:#000000;stroke-miterlimit:10;}
	.st15{fill:#666666;stroke:#000000;stroke-miterlimit:10;}
	.st16{fill:#333333;stroke:#000000;stroke-miterlimit:10;}
	.st17{fill:#FFFFFF;stroke:#FFFFFF;stroke-miterlimit:10;}
</style>
<g id="Réteg_4">
	<rect x="-17.5" y="-17.5" class="st0" width="1971" height="1140"/>
	<path class="st1" d="M132.5,907.5c248,22.33,496,25.33,744,9c318.84-7.52,634.25-22.02,946-44c7.91-0.52,13.04-1.91,16-4
		c15.01-5.06-77.9-7.55-132.39-10.95l-412.62-5.01L994.5,866.5l-183.39,4.64l-371.46,11.99L264.5,889.5c-9.99,1.04-13.47,2.02-16,3
		C193.12,894.69,134.45,896.32,132.5,907.5z"/>
	
		<ellipse transform="matrix(0.9169 -0.3991 0.3991 0.9169 -197.337 248.872)" class="st2" cx="498.93" cy="598.29" rx="150.28" ry="47.39"/>
	<path class="st2" d="M156.5,628.5c22.76-29.86,45.57-57.94,69-68c9.91-3.89,24.05-6.17,42-7"/>
	<ellipse class="st3" cx="1223.5" cy="760" rx="134" ry="108.5"/>
	<ellipse class="st3" cx="367.5" cy="818" rx="120" ry="81.5"/>
	<path class="st3" d="M199.5,849.5c0.65,8.16,1.44,15.84,3,21l45,2c1.05-2.09,1.33-8.7,1-19"/>
	<path class="st3" d="M680.5,616.5c62.85,0.86,106.68,22.12,135,60c27.15,29.7,34.08,68.54,33,111c-2.41,25.68-8.75,46.02-19,61
		l40,8c14.01-40.18,33-73.89,7-166c-19.68-41.83-46.92-74.13-92-84C739.61,598.15,707.68,604.61,680.5,616.5z"/>
	<polygon class="st3" points="829.5,848.5 818.5,847.5 845.5,780.5 855.5,788.5 837,850 	"/>
	<ellipse class="st4" cx="690" cy="770.5" rx="158.5" ry="156"/>
	<path class="st3" d="M1766.5,730c-1.56,13.31-5.9,17.73-8,35.5c-0.34,2.89-0.93,8.68-5,14c-4.12,5.38-9.63,7.42-11,8
		c-19.44,8.17-30.93,67.23-66,89c-12.6,7.82-28.9,8.55-61.5,10c-26.33,1.17-42.29-2.1-52.5-5c-15.98-4.54-25.3-10.28-28-12
		c0,0-12.8-8.15-24-22c-48.33-59.74-47-117.5-47-117.5c1.69-73.17,66.68-154.33,151.5-156.5c58.83-1.5,113.72,35.33,136.5,81
		C1763.39,678.35,1768.91,709.39,1766.5,730z"/>
	<ellipse class="st4" cx="1643" cy="750" rx="106.5" ry="133.5"/>
	<path class="st3" d="M1745.41,786.76l-1.15,4.7l18.24,0.04c6.8-45.99,10.64-90.28-4-124l-25.07,11.96
		C1753.38,710.37,1756.66,746.35,1745.41,786.76z"/>
	<circle class="st5" cx="691.5" cy="772.5" r="119"/>
	<ellipse class="st5" cx="1649.5" cy="747.5" rx="84" ry="109"/>
	<path class="st6" d="M552.5,615.5c-21.78,1.58-41.87,1.65-60,0c-3-3.77,8.19-12.43,22-22c11.26-7.08,30.56-15.09,75-26l6,21l-10,24
		L552.5,615.5z"/>
</g>
<g id="Réteg_2">
	<path class="st7" d="M305.5,539.5c85.31-33.05,205.14-42.08,328-49c111.14,0.72,274.91,1.78,309,2
		c42.75,10.68,117.53-61.13,190-127c36.34-28.37,100.06-21.74,167-11c182.29,35.57,280.25,74.28,378,113c4.82-0.25,9.47,0.5,14,2
		c6.99,2.2,20.4,15.69,32,26c-16.28-11.88-34.89-16.17-57-9c-204.7-78.37-377.19-122.82-501-116c-43.99,42.24-85.29,86.91-125,133
		c-302.87-4.53-536.2,29.51-657,126c-82.29-9.52-159.13-14.1-222-6C190.68,591.46,235.13,562.69,305.5,539.5z"/>
	<path class="st8" d="M1302.27,355.04c-89.56-20.05-336.67-38.36-456.77,16.46c63.71-23.15,175.47-15.23,288.03-6.78
		C1168.89,339.46,1229.8,341.16,1302.27,355.04z"/>
	<g>
		<path d="M692,651c-66.83,0-121,53.95-121,120.5c0,66.55,54.17,120.5,121,120.5s121-53.95,121-120.5C813,704.95,758.83,651,692,651
			z M690.59,875.12c-55.65,0-100.75-45.55-100.75-101.75c0-56.19,45.11-101.75,100.75-101.75s100.75,45.55,100.75,101.75
			C791.34,829.57,746.23,875.12,690.59,875.12z"/>
		<rect x="686.5" y="653.5" width="6" height="238"/>
		<rect x="690.64" y="657.64" transform="matrix(-1.836970e-16 1 -1 -1.836970e-16 1467.6445 80.6446)" width="5.71" height="233"/>
		<rect x="686.63" y="654.97" transform="matrix(-0.866 0.5 -0.5 -0.866 1673.8331 1099.3451)" width="6" height="237.9"/>
		<rect x="688.84" y="653.29" transform="matrix(-0.866 -0.5 0.5 -0.866 904.853 1787.0328)" width="6" height="238"/>
		<rect x="690.05" y="655.64" transform="matrix(-0.5 -0.866 0.866 -0.5 368.7633 1762.0876)" width="6" height="237.9"/>
		<path d="M589.43,716.72l1.08-1.88c0.27-0.47,0.87-0.63,1.34-0.36l202.61,116.98l-2.83,4.9L590.35,720.15
			C589.15,719.46,588.73,717.93,589.43,716.72z"/>
		<path d="M670.5,815.25c9.5-12.52,14.94-11.44,16,4.3L690,797l-11-4L670.5,815.25z"/>
		<path d="M653.23,801.25c13.69-7.72,18.25-4.57,12.98,10.3l12.16-19.31l-8.51-8.04L653.23,801.25z"/>
		<path d="M648.57,776.76c16.19,3.44,18.25,9.39,5.09,18.06l21.63-7.41l-2.59-12.92L648.57,776.76z"/>
		<path d="M692.42,819.48c0.87-16.09,6.21-18.62,16.35-6.53l-10.2-20.46l-11.85,3.64L692.42,819.48z"/>
		<path d="M714.97,811.76c-5.79-15.04-1.96-19.53,12.25-12.65l-17.68-14.49l-9.32,8.18L714.97,811.76z"/>
		<path d="M728.15,793.65c-12.49-10.18-11.39-15.98,4.35-17.06l-22.54-3.8l-4.03,11.73L728.15,793.65z"/>
		<path d="M735.19,772.49c-15.72-3.54-17.32-9.22-3.71-17.21l-21.87,6.66l1.62,12.3L735.19,772.49z"/>
		<path d="M725.85,752.62c-14.39,7.25-19.24,3.88-13.8-10.93l-12.66,19.03l9.06,8.47L725.85,752.62z"/>
		<path d="M709.55,735.33c-9.51,13.01-15.36,12.22-17.26-3.45l-2.61,22.71L701.6,758L709.55,735.33z"/>
		<path d="M687.31,729.37c-1.61,16.03-7.05,18.31-16.63,5.77l9.26,20.9l12.01-3.1L687.31,729.37z"/>
		<path d="M666.39,738.27c6.67,14.67,3.12,19.38-11.47,13.35l18.51,13.41l8.82-8.72L666.39,738.27z"/>
		<path d="M652.04,754.9c13.21,9.23,12.54,15.1-3.08,17.33l22.76,2.13l3.16-11.99L652.04,754.9z"/>
		<path d="M677,876c7.58-1.73,9.85-9.82,9.5-20.17h6c-0.21,10.37,1.74,18.23,8.5,20.17H677z"/>
		<path d="M628.65,855.34c7.33,2.58,13.57-3.05,18.8-11.98l5.07,3.2c-5.72,8.66-8.26,16.34-3.58,21.59L628.65,855.34z"/>
		<path d="M596.16,816.47c5.38,5.61,13.49,3.4,22.18-2.22l3.08,5.15c-9.01,5.15-14.74,10.86-12.93,17.66L596.16,816.47z"/>
		<path d="M730.37,870.06c5.78-5.19,3.84-13.37-1.48-22.24l5.25-2.91c4.85,9.17,10.37,15.09,17.22,13.51L730.37,870.06z"/>
		<path d="M772.74,834.77c1.77-7.03-4.38-12.69-13.66-17.26l2.62-4.92c9.07,5.04,16.85,7.13,21.52,2.5L772.74,834.77z"/>
		<path d="M792.27,785c-1.73-6.63-9.82-8.62-20.17-8.31v-5.25c10.37,0.19,18.23-1.53,20.17-7.44V785z"/>
		<path d="M786.58,732.97c-4.82-4.87-12.82-2.55-21.62,2.89l-2.63-4.55c9.08-5.02,15.02-10.44,13.75-16.53L786.58,732.97z"/>
		<path d="M751.27,690.49c-6.61-1.81-12.37,4.2-17.28,13.31l-4.55-2.63c5.35-8.89,7.79-16.55,3.64-21.19L751.27,690.49z"/>
		<path d="M700.23,669.92c-6.63,1.73-8.62,9.82-8.31,20.17h-5.25c0.19-10.37-1.53-18.23-7.44-20.17H700.23z"/>
		<path d="M647.35,678.94c-4.87,4.82-2.55,12.82,2.89,21.62l-4.55,2.63c-5.02-9.08-10.44-15.02-16.53-13.75L647.35,678.94z"/>
		<path d="M589.35,764c1.73,6.24,9.82,8.11,20.17,7.82v4.94c-10.37-0.18-18.23,1.44-20.17,7V764z"/>
		<path d="M607.23,714.76c-1.62,6.27,4.45,11.94,13.55,16.86l-2.47,4.28c-8.89-5.34-16.5-7.87-20.97-4.02L607.23,714.76z"/>
		<g>
			<path class="st9" d="M679.68,771.52h-3.74c-0.44,0-0.79,0.36-0.79,0.81v6.36c0,0.45,0.35,0.81,0.79,0.81h3.12
				c0.37,0,0.62,0.29,0.75,0.48c0.13,0.19,0.46,0.61,0.64,0.91c1.81,3.04,5.24,5.1,9.16,5.1c3.71,0,6.97-1.64,8.84-4.39
				c0.21-0.33,0.69-0.95,1.03-1.67c0.18-0.34,0.33-0.43,0.62-0.43h3.1c0.44,0,0.79-0.36,0.79-0.81l0,0v-6.36
				c0-0.45-0.35-0.81-0.79-0.81h-3.44c-0.47,0-0.91-0.38-1.17-0.79c-1.74-2.92-5.13-4.91-9.02-4.91c-4,0-7.47,2.1-9.17,5.17
				C680.34,771.26,680.12,771.52,679.68,771.52C679.68,771.52,680.12,771.52,679.68,771.52L679.68,771.52z"/>
			<path class="st10" d="M681.23,772.34c1.19-3.48,4.44-5.69,8.38-5.69c3.89,0,7.19,1.82,8.39,5.6c-0.36-0.31-0.78-0.56-1.32-0.65
				c0.11,0.23,0.31,0.64-0.16,0.64h-13.6c-0.31,0-0.42-0.28-0.4-0.53C682.09,771.78,681.52,772.11,681.23,772.34
				C681.23,772.34,681.52,772.11,681.23,772.34L681.23,772.34z"/>
			<path class="st11" d="M682.26,781.88c1.78,1.94,4.41,3.16,7.35,3.16c2.96,0,5.17-1.05,7.08-3.24c1.45,0.17,2.52-1.53,2.89-2.52
				l-1.19-0.98l-1.86,1.11l0.08,0.14l1.35-0.73c-1.25,3.41-4.4,5.89-8.35,5.89c-4.03,0-7.44-2.53-8.63-6.04l1.54,0.89l0.08-0.14
				l-1.81-1.09c-0.29,0.1-0.77,0.4-0.95,0.67c-0.18,0.26-0.07,0.55,0.04,0.77c0.11,0.23,1.57,2.58,2.48,3.28
				c-0.29-0.32-0.69-0.87-0.99-1.47L682.26,781.88L682.26,781.88z M696.51,771.56c-0.95-3.13-3.96-4.13-6.94-4.13
				c-2.88,0-5.48,1.04-6.63,4.13c-0.09,0.23,0.09,0.26,0.22,0.26l13.16,0C696.53,771.83,696.55,771.75,696.51,771.56
				C696.51,771.56,696.55,771.75,696.51,771.56z"/>
			<path class="st11" d="M702.45,777.85c0.23,0,0.42-0.19,0.42-0.43v-4.33c0-0.24-0.19-0.43-0.42-0.43l0,0h-25.74
				c-0.23,0-0.42,0.19-0.42,0.43v4.33c0,0.24,0.19,0.43,0.42,0.43l0,0H702.45z M696.3,779.44c0.16,0,0.21,0.15,0.15,0.34
				c-1.06,3.09-4.35,4.14-6.86,4.19c-2.52-0.05-5.81-1.11-6.86-4.19c-0.06-0.19-0.02-0.34,0.15-0.34H696.3L696.3,779.44z"/>
			<path class="st12" d="M678.53,777.02v-3.73h1.65l1.1,2.83v-2.83h1.02v3.73h-1.6l-1.16-2.96v2.96H678.53z M683.1,773.29h1.04v3.73
				h-1.04V773.29z M692.19,777.02l1.29-3.73h1.48l1.28,3.73h-1.04l-0.99-2.9l-0.47,1.4h0.95l0.27,0.82h-1.5l-0.23,0.67H692.19
				L692.19,777.02z M687.12,775.57v0.61h-2.21v0.85h2.25c0.53,0,1.04-0.44,1.04-1.16c0-0.72-0.38-1.13-1.28-1.13h-1.08v-0.61h2.03
				v-0.84h-2.08c-0.54,0-0.99,0.27-0.99,1.07c0,0.37,0.06,1.2,1.22,1.2H687.12L687.12,775.57z M696.62,777.02v-3.73h1.65l1.1,2.83
				v-2.83h1.02v3.73h-1.6l-1.16-2.96v2.96H696.62z M690.94,775.57v0.61h-2.21v0.85h2.25c0.53,0,1.04-0.44,1.04-1.16
				c0-0.72-0.38-1.13-1.28-1.13h-1.08v-0.61h2.03v-0.84h-2.08c-0.54,0-0.99,0.27-0.99,1.07c0,0.37,0.06,1.2,1.22,1.2H690.94
				L690.94,775.57z"/>
		</g>
	</g>
	<path class="st8" d="M161.5,623.5c64.77-8.19,141.37-3.32,222,6c-9.62,5.22-17.27,10.74-20,17c-1.58,2.55,4.17,2.62,12,2l133-13
		c8.88-0.9,17.25-3.75,25-9l41-23l-41,1c-5.95-1.24-6.19-4.69,1-11c15.14-9.75,42.31-21.37,76-34c4.59,0.34,9.91-12.78,15.32-27.52
		c163.63-27.63,293.59-31.82,412.77-28.51l332.91,3.03c21.42-1.3,41.44-5.03,59-13l64-27c3.02,0.29,4.61-4.64,5-14v-24.41
		c103.2,32.85,201.28,66.21,251,104.41c5.21,6.52,8.23,12.63,2,17l-8,8l23,17c8.86-0.35,17.36-0.69,25-1
		c13.72,6.71,19.84,72.02,26,137c-13.93,26.22-27.71,52.4-26,74c-7.91,6.31-18.22,10.66-31,13c9.88-68.8,22.03-137.9-58-195
		c-48.35-20.57-92.98-11.26-134,27c-41.92,42.43-52.04,113.7-50,196l-652,31c6.68-14.91,15.08-37.95,18-67
		c1.9-18.84,10.4-103.37-48-154c-24.81-21.51-51.29-27.96-60.81-30.06c-28.68-6.35-61.96-3.56-102.19,13.06
		c-55.36,25.74-85.06,77.03-97,146c-4.37,42.94-7.4,90.28-21,103c-45.11,0.61-90.51,1.38-118-8c-22.86-10.1-44.71-16.59-64-14
		l-223-13c-1.19,3.7-1.46,7.39,4,11c-17.4-6.08-34.48-13.86-50-30c1.45-11.31,5.98-22.32,14-33l-4-94
		C127.51,662.89,141.67,640.96,161.5,623.5z"/>
	<path class="st2" d="M128.5,698.5c76.61,2.71,164.87,4.91,188,10c9.18,2.59,13.63,15.84,15,36c1.04,12.68,2.49,30.44,4,49l-33,8
		c-38.93-0.13-80.88-0.95-146-7c-0.43-6.77-2.17-13.04-10-17l-24-64C120.56,704.71,121.48,698.67,128.5,698.5z"/>
	<path class="st3" d="M145.5,729.5l11,64c25.93,4.08,70.13,7.03,146,8l11-66C248.92,737.15,190.16,736.33,145.5,729.5z"/>
	<path class="st3" d="M477.5,866.5c-1.03,8.9-1.34,17.17,0,24c20.63,0.93,40.4,1.33,59,1c3.12-5.78,4.98-14.06,6-24"/>
	<path class="st4" d="M1163.69,371.5L1036,503.5l338.98,2.71c28.87-2.27,53.95-9.79,76.02-21.48l43.46-18.24
		c6.84-1.55,6.52-18.52,5.03-38C1395.99,396.97,1291.49,366.9,1163.69,371.5z"/>
	<path class="st4" d="M845.5,371.5c-67.67,38.35-130.69,78.15-189.9,119.14l294.74,2.9c27.95-1.82,59.82-20.67,94.1-50.02
		l89.06-79.02C1021.35,356.31,909.52,348.32,845.5,371.5z"/>
	<path class="st3" d="M633.5,490.5c82.66-51.23,159.89-96.51,220-123c-75.16,42.04-142.29,83.17-198,123H633.5z"/>
	<path class="st4" d="M157.5,844.5c25.34,6.31,161.39,12.66,296.76,19c-27.97-9.19-57.07-20.73-79.76-19l-223-12
		C149.53,836.94,150.81,841.02,157.5,844.5z"/>
	<path class="st13" d="M1723.5,495.5c15.5,0.19,31.24,14.78,47,31c13.21,8.83,21.12,23.82,22,47h-25l-23-16l10.93-11.32
		c0.68-4.59-0.52-9.15-4.93-13.68c-29.55-19.3-58.22-36.13-84-45C1683.85,478.62,1703.1,483.01,1723.5,495.5z"/>
	<polygon class="st7" points="1008.5,633.5 1083.5,629.5 1198.5,787.5 1125.5,790.5 	"/>
	<polygon class="st7" points="1094.5,629.5 1163.5,627.5 1274.5,782.5 1209.5,786.5 	"/>
	<path class="st5" d="M454.5,790.5c2.91,0.31,7.01,0.26,10.89-1.84c12.25-6.63,10.14-27.18,15.11-52.16c2.18-10.96,6.34-25.84,15-43
		c-13.33,0.93-18.92,6.45-21,9c-1.2,1.47-2.4,3.37-6.22,14.95c-2.94,8.92-4.42,13.38-5.78,19.05c-2.6,10.83-2.46,15.28-5,34
		C456.73,776.18,455.75,782.91,454.5,790.5z"/>
	<path class="st14" d="M1448.5,596.5c-31.2,121.56-57.44,182.14-79,185c-76.43,9.8-218.49,15.97-363,22
		c-6.97-106.07-13.94-212.11-11-269c4.96-13.25,10.77-27.32,6.22-31.37"/>
	<line class="st14" x1="1407.96" y1="727.36" x2="1526.5" y2="720.5"/>
	<line class="st14" x1="885.5" y1="808.5" x2="1006.5" y2="803.5"/>
	<path class="st14" d="M623.5,543.5c114.09-19.32,239.63-28.51,375-29"/>
	<path class="st14" d="M1004.5,514.5h364c21.84,0.4,45.06-4.84,69-13"/>
	<path class="st7" d="M1442.5,499.5l48.53-20.32l68.47-28.68l-39-12c-0.05,11.71-0.85,21.66-4,26l-26,14l-20,9L1442.5,499.5z"/>
	<path class="st15" d="M1410.5,594.5c12.67,3.2,25.33,3.2,38,0c2.52-30.59,1.94-58.63-8-79c-10.76,3.14-20.06,6.51-22,11
		C1411.86,552.78,1407.93,576.59,1410.5,594.5z"/>
	<path class="st16" d="M314,741.37c-67.81-1.22-131.26-2.7-165-5.87v5c50.77,3.16,106,5.01,164.54,5.88L314,741.37z"/>
	<path class="st16" d="M312,760.85c-65.55-1.22-126.88-2.7-159.5-5.87v5c49.08,3.16,102.47,5.01,159.05,5.88L312,760.85z"/>
	<path class="st16" d="M313,779.85c-65.55-1.22-126.88-2.7-159.5-5.87v5c49.08,3.16,102.47,5.01,159.05,5.88L313,779.85z"/>
	<path class="st16" d="M147.3,729.58l2.78,1.67c0.27,0.16,0.45,0.43,0.49,0.74l0.32,2.48l6.92,53.65c0.14,1.12-1.36,1.61-1.9,0.62
		l-1.45-2.66c-1.29-2.37-2.13-4.96-2.48-7.64l-6.2-47.86C145.66,729.74,146.57,729.14,147.3,729.58z"/>
	<path class="st16" d="M311.5,735.5c-2.07,24.86-4.55,47.47-8,65l32-7c-0.81-20.07-3.11-39.77-5-59L311.5,735.5z"/>
	<path class="st3" d="M1365.86,391.99c4.48,41.05,5.3,79.73,0,114.46l17.09-0.9c2.7-37.67,2.62-74.46-1.48-109.99L1365.86,391.99z"
		/>
	<path class="st7" d="M1194.5,482.5c3.84-21.11-0.6-36.71-22-41c-31.09-9.83-57.59-5.81-79.62,11.72l-14.38,27.28l8,8l102-1
		L1194.5,482.5z"/>
	<path class="st2" d="M1090.15,484.95l104.35-2.45c-2.61,15.3-22.86,23.75-72,21c-21.51-2.84-34.39-8.2-32-18"/>
	<path class="st16" d="M1090.86,447c2.36,0.51,3.89,1.13,3.36,2.02c-12.4,24.53-9.32,37.45,4.48,42.32
		c14.13-1.23,25.35,0.12,26.87,10.08c5.81,3.75-47.02,2.44-89.56,2.02L1090.86,447z"/>
	<circle class="st17" cx="689.5" cy="774.5" r="6"/>
	<circle cx="690.5" cy="775.5" r="29"/>
	<polygon points="576,777 577.61,777 578,774 576.53,774.24 	"/>
	<polygon points="590.01,716.98 591,714 592,715 	"/>
	<polyline points="592,715 591,714 591,714 591,714 591,714 	"/>
	<ellipse class="st1" cx="689.97" cy="774.99" rx="18.03" ry="18.01"/>
	<g>
		<path d="M1650,636c-46.39,0-84,49.92-84,111.5c0,61.58,37.61,111.5,84,111.5s84-49.92,84-111.5C1734,685.92,1696.39,636,1650,636z
			 M1649.02,843.38c-38.63,0-69.95-42.15-69.95-94.15c0-52,31.32-94.15,69.95-94.15c38.63,0,69.95,42.15,69.95,94.15
			C1718.96,801.23,1687.65,843.38,1649.02,843.38z"/>
		<rect x="1646.18" y="638.31" width="4.17" height="220.22"/>
		
			<rect x="1648.4" y="669.07" transform="matrix(-1.836970e-16 1 -1 -1.836970e-16 2400.9883 -901.0942)" width="5.28" height="161.75"/>
		<polygon points="1605.26,655.81 1608.87,653.03 1691.45,843.67 1687.84,846.45 		"/>
		<polygon points="1689.39,651.48 1693,654.26 1610.39,844.98 1606.78,842.2 		"/>
		<polygon points="1721.2,692.92 1723.29,697.73 1580.26,807.8 1578.18,802.99 		"/>
		<path d="M1578.79,696.82l0.75-1.74c0.19-0.43,0.6-0.58,0.93-0.33l140.66,108.24l-1.96,4.53l-139.74-107.53
			C1578.6,699.35,1578.31,697.93,1578.79,696.82z"/>
		<path d="M1635.08,787.98c6.6-11.58,10.37-10.58,11.1,3.98l2.43-20.87l-7.64-3.7L1635.08,787.98z"/>
		<path d="M1623.08,775.03c9.5-7.14,12.67-4.23,9.01,9.53l8.44-17.87l-5.91-7.44L1623.08,775.03z"/>
		<path d="M1619.85,752.37c11.24,3.18,12.67,8.69,3.53,16.71l15.02-6.86l-1.8-11.96L1619.85,752.37z"/>
		<path d="M1650.29,791.9c0.61-14.89,4.31-17.23,11.35-6.04l-7.08-18.93l-8.23,3.37L1650.29,791.9z"/>
		<path d="M1665.95,784.75c-4.02-13.91-1.36-18.07,8.5-11.7l-12.28-13.41l-6.47,7.57L1665.95,784.75z"/>
		<path d="M1675.1,768c-8.67-9.42-7.91-14.79,3.02-15.78l-15.65-3.52l-2.8,10.85L1675.1,768z"/>
		<path d="M1679.98,748.42c-10.91-3.27-12.03-8.53-2.58-15.92l-15.18,6.16l1.13,11.38L1679.98,748.42z"/>
		<path d="M1673.5,730.03c-9.99,6.71-13.35,3.59-9.58-10.12l-8.79,17.61l6.29,7.83L1673.5,730.03z"/>
		<path d="M1662.18,714.03c-6.6,12.04-10.66,11.3-11.99-3.19l-1.81,21.02l8.28,3.16L1662.18,714.03z"/>
		<path d="M1646.74,708.51c-1.12,14.83-4.9,16.95-11.55,5.34l6.43,19.34l8.34-2.87L1646.74,708.51z"/>
		<path d="M1632.22,716.75c4.63,13.57,2.16,17.93-7.96,12.36l12.85,12.41l6.12-8.07L1632.22,716.75z"/>
		<path d="M1622.26,732.14c9.17,8.54,8.71,13.97-2.14,16.04l15.8,1.97l2.19-11.1L1622.26,732.14z"/>
		<path d="M1639.59,844.2c5.26-1.6,6.84-9.09,6.59-18.66h4.17c-0.15,9.6,1.21,16.87,5.9,18.66H1639.59z"/>
		<path d="M1606.02,825.08c5.09,2.39,9.42-2.82,13.05-11.09l3.52,2.96c-3.97,8.01-5.73,15.12-2.49,19.98L1606.02,825.08z"/>
		<path d="M1583.46,789.11c3.74,5.19,9.36,3.15,15.4-2.05l2.14,4.76c-6.25,4.76-10.23,10.05-8.98,16.34L1583.46,789.11z"/>
		<path d="M1676.63,838.7c4.02-4.81,2.67-12.37-1.03-20.58l3.64-2.69c3.37,8.49,7.2,13.96,11.95,12.5L1676.63,838.7z"/>
		<path d="M1706.05,806.05c1.23-6.5-3.04-11.74-9.49-15.97l1.82-4.55c6.29,4.67,11.7,6.59,14.94,2.31L1706.05,806.05z"/>
		<path d="M1719.61,759.99c-1.2-6.13-6.82-7.97-14-7.69v-4.86c7.2,0.17,12.65-1.41,14-6.88V759.99z"/>
		<path d="M1715.66,711.84c-3.34-4.51-8.9-2.36-15.01,2.67l-1.82-4.21c6.3-4.65,10.43-9.66,9.54-15.29L1715.66,711.84z"/>
		<path d="M1691.15,672.54c-4.59-1.68-8.59,3.88-12,12.32l-3.16-2.43c3.71-8.23,5.41-15.31,2.53-19.6L1691.15,672.54z"/>
		<path d="M1655.71,653.51c-4.6,1.6-5.98,9.09-5.77,18.66h-3.64c0.13-9.6-1.06-16.87-5.16-18.66H1655.71z"/>
		<path d="M1619,661.86c-3.38,4.46-1.77,11.86,2,20.01l-3.16,2.43c-3.49-8.4-7.24-13.9-11.47-12.72L1619,661.86z"/>
		<path d="M1578.74,740.56c1.2,5.77,6.82,7.51,14,7.24v4.57c-7.2-0.16-12.65,1.33-14,6.48V740.56z"/>
		<path d="M1591.15,695c-1.12,5.8,3.09,11.04,9.41,15.6l-1.72,3.96c-6.17-4.94-11.46-7.28-14.56-3.72L1591.15,695z"/>
		<g>
			<path class="st9" d="M1641.45,747.52h-2.6c-0.3,0-0.55,0.34-0.55,0.75v5.89c0,0.42,0.25,0.75,0.55,0.75h2.16
				c0.26,0,0.43,0.27,0.52,0.44c0.09,0.17,0.32,0.57,0.45,0.84c1.26,2.82,3.64,4.72,6.36,4.72c2.57,0,4.84-1.52,6.14-4.06
				c0.15-0.31,0.48-0.88,0.72-1.54c0.13-0.31,0.23-0.4,0.43-0.4h2.15c0.3,0,0.55-0.34,0.55-0.75l0,0v-5.88
				c0-0.42-0.25-0.75-0.55-0.75h-2.39c-0.33,0-0.63-0.35-0.81-0.73c-1.21-2.71-3.56-4.54-6.26-4.54c-2.78,0-5.19,1.95-6.37,4.78
				C1641.9,747.28,1641.75,747.52,1641.45,747.52C1641.45,747.52,1641.75,747.52,1641.45,747.52L1641.45,747.52z"/>
			<path class="st10" d="M1642.52,748.28c0.82-3.22,3.08-5.27,5.82-5.27c2.7,0,4.99,1.69,5.82,5.18c-0.25-0.29-0.54-0.51-0.92-0.6
				c0.08,0.21,0.22,0.59-0.11,0.59h-9.44c-0.22,0-0.29-0.26-0.28-0.49C1643.12,747.76,1642.73,748.06,1642.52,748.28
				C1642.52,748.28,1642.73,748.06,1642.52,748.28L1642.52,748.28z"/>
			<path class="st11" d="M1643.24,757.1c1.24,1.79,3.06,2.93,5.1,2.93c2.05,0,3.59-0.97,4.91-3c1.01,0.16,1.75-1.41,2.01-2.33
				l-0.82-0.91l-1.29,1.03l0.06,0.13l0.94-0.68c-0.87,3.16-3.05,5.45-5.8,5.45c-2.8,0-5.17-2.34-5.99-5.59l1.07,0.82l0.06-0.13
				l-1.25-1.01c-0.2,0.1-0.53,0.37-0.66,0.62c-0.13,0.24-0.05,0.51,0.03,0.71c0.08,0.21,1.09,2.39,1.72,3.03
				c-0.2-0.3-0.48-0.8-0.68-1.36L1643.24,757.1L1643.24,757.1z M1653.13,747.56c-0.66-2.89-2.75-3.82-4.82-3.82
				c-2,0-3.8,0.97-4.6,3.82c-0.06,0.21,0.07,0.25,0.15,0.25l9.14,0C1653.15,747.8,1653.16,747.73,1653.13,747.56
				C1653.13,747.56,1653.16,747.73,1653.13,747.56z"/>
			<path class="st11" d="M1657.25,753.38c0.16,0,0.29-0.18,0.29-0.4v-4.01c0-0.22-0.13-0.4-0.29-0.4l0,0h-17.87
				c-0.16,0-0.29,0.18-0.29,0.4v4.01c0,0.22,0.13,0.4,0.29,0.4l0,0H1657.25z M1652.98,754.84c0.11,0,0.15,0.14,0.1,0.31
				c-0.74,2.86-3.02,3.83-4.77,3.88c-1.75-0.05-4.03-1.02-4.77-3.88c-0.04-0.17-0.01-0.31,0.1-0.31H1652.98L1652.98,754.84z"/>
			<path class="st12" d="M1640.65,752.61v-3.45h1.14l0.76,2.62v-2.62h0.71v3.45h-1.11l-0.81-2.74v2.74H1640.65z M1643.82,749.16
				h0.72v3.45h-0.72V749.16z M1650.13,752.61l0.9-3.45h1.02l0.89,3.45h-0.72l-0.69-2.68l-0.33,1.29h0.66l0.19,0.76h-1.04l-0.16,0.62
				H1650.13L1650.13,752.61z M1646.61,751.27v0.56h-1.54v0.79h1.56c0.37,0,0.72-0.4,0.72-1.07c0-0.67-0.26-1.05-0.89-1.05h-0.75
				v-0.56h1.41v-0.77h-1.44c-0.38,0-0.69,0.25-0.69,0.99c0,0.35,0.04,1.11,0.85,1.11H1646.61L1646.61,751.27z M1653.21,752.61v-3.45
				h1.14l0.76,2.62v-2.62h0.71v3.45h-1.11l-0.81-2.74v2.74H1653.21z M1649.26,751.27v0.56h-1.54v0.79h1.56
				c0.37,0,0.72-0.4,0.72-1.07c0-0.67-0.26-1.05-0.89-1.05h-0.75v-0.56h1.41v-0.77h-1.44c-0.38,0-0.69,0.25-0.69,0.99
				c0,0.35,0.04,1.11,0.85,1.11H1649.26L1649.26,751.27z"/>
		</g>
	</g>
	<path class="st1" d="M1664.92,748.9c0.97,13.31-7.21,24.41-17.01,23.08c-7.25-0.98-13.11-8.94-13.83-18.79
		c-0.97-13.31,7.21-24.41,17.01-23.08C1658.34,731.09,1664.2,739.05,1664.92,748.9z"/>
	<g>
		<g>
			<path d="M1735.36,1031.7c6.92-5.84,15.03-10.16,21.62-16.41c3.34-3.17,6.42-6.68,9.12-10.41c2.25-3.11,4.25-6.45,5.38-10.13
				c0.92-3.01,1.27-6.39-2.07-7.93c-2.92-1.35-6.68-1.22-9.82-1.01c-1.68,0.11-3.32,0.49-4.71,1.48c-1.73,1.22-3.02,3.08-4.2,4.8
				c-2.47,3.6-4.62,7.65-6.25,11.7c-0.88,2.18-1.08,4.54-1.83,6.75c-0.8,2.36-1.98,4.59-2.98,6.86c-1.98,4.49-3.92,9-6.07,13.42
				c-2.05,4.22-4.2,8.5-6.87,12.36c-1.22,1.76-2.61,3.38-4.12,4.9c-1.38,1.4-2.55,2.93-3.82,4.44c-1.98,2.35-4.81,3.55-7.58,4.76
				c-1.63,0.71-4.68,2.14-6.38,0.89c-0.97-0.71-1.13-2.18-1.23-3.28c-0.18-1.8-0.27-3.68-0.03-5.47c0.48-3.61,3.86-4.56,6.85-5.63
				c4.24-1.53,8.41-2.8,12.88-3.48c2.39-0.36,4.8-0.63,7.2-0.9c2.55-0.28,5.1-0.3,7.65-0.56c2.43-0.25,4.85-0.53,7.29-0.7
				c2.11-0.15,4.2-0.54,6.22-1.16c4.05-1.25,7.79-3.32,11.41-5.49c1.82-1.09,3.63-2.21,5.46-3.28c-0.73-0.56-1.47-1.13-2.2-1.69
				c-0.83,2.13-2.61,3.73-4.13,5.37c-1.49,1.62-2.63,3.46-3.67,5.39c0.86,0.5,1.73,1.01,2.59,1.51c2.22-4.65,5-10.01,10.09-12.01
				c0.57-0.22,1.34-0.58,1.94-0.64c0.47-0.05,0.41-0.04,0.69,0.45c0.34,0.61,0.7,1.78,0.57,2.19c-0.27,0.86-1.06,1.75-1.6,2.45
				c-0.53,0.67-1.24,1.6-1.87,2.03c0.73,0.56,1.47,1.13,2.2,1.69c0.56-2.24,3.5-3.72,5.27-4.88c1.03-0.68,2.02-1.42,3.16-1.91
				c1.2-0.52,2.43-0.91,3.63-1.45c0.67-0.3,1.75-0.97,2.48-0.45c0.65,0.46,0.68,1.73,0.71,2.43c0.09,2.09-0.45,4.55,1.14,6.23
				c1.73,1.83,5.08,1.98,7.38,1.45c2.8-0.65,4.81-2.7,6.95-4.46c2.36-1.94,4.89-3.57,6.72-6.06c1.21-1.65,2.94-4.08,2.34-6.24
				c-0.61-2.19-3.04-3.12-5.06-3.45c-2.04-0.34-4.17-0.38-6.05,0.6c-2.19,1.14-3.9,3.2-5.26,5.21c-1.36,2-2.58,4.35-2.97,6.76
				c-0.33,2.05-0.66,4.91,0.64,6.7c1.3,1.79,3.82,2.09,5.87,2.16c2.29,0.07,4.88-0.01,7.11-0.56c1.57-0.38,3.02-1.08,4.53-1.65
				c1.71-0.64,3.5-0.98,5.28-1.35c1.84-0.39,3.54-0.9,5.24-1.71c1.63-0.78,3.18-1.73,4.82-2.47c3.66-1.64,7.88-2.36,11.8-3.14
				c8.17-1.63,16.45-3.41,24.76-4.12c1.91-0.16,1.93-3.16,0-3c-6.71,0.57-13.31,1.94-19.91,3.16c-6.43,1.19-13.4,2.07-19.29,5.05
				c-1.36,0.69-2.68,1.47-4.08,2.1c-1.47,0.66-3.02,0.99-4.59,1.32c-1.48,0.31-2.96,0.61-4.39,1.1c-1.53,0.53-2.99,1.26-4.56,1.69
				c-2.01,0.56-4.35,0.6-6.44,0.57c-1.27-0.02-3.68,0.04-3.96-1.56c-0.76-4.34,1.69-8.88,4.61-11.89c1.41-1.45,2.73-2.23,4.66-2.19
				c1.03,0.02,3.98,0.14,4.33,1.46c0.19,0.71-0.73,1.94-1.07,2.49c-0.59,0.97-1.25,1.87-2.05,2.68c-1.98,1.99-4.39,3.55-6.51,5.38
				c-1.93,1.67-4.01,2.96-6.67,2.6c-0.74-0.1-1.83-0.23-2.2-0.98c-0.34-0.71-0.14-1.74-0.13-2.49c0.05-2.16-0.03-4.91-1.99-6.27
				c-2.25-1.57-4.46-0.13-6.63,0.73c-1.37,0.54-2.76,0.95-4.03,1.72c-1.13,0.68-2.22,1.46-3.31,2.2c-2.08,1.41-4.53,3.12-5.17,5.7
				c-0.3,1.19,1.07,2.46,2.2,1.69c1.06-0.72,1.89-1.74,2.67-2.74c0.82-1.05,1.78-2.22,2.18-3.51c0.78-2.49-1.23-6.83-4.2-6.52
				c-1.61,0.17-3.42,1-4.82,1.8c-1.53,0.87-2.91,2.04-4.09,3.34c-2.41,2.66-4.12,5.84-5.66,9.06c-0.82,1.72,1.66,3.23,2.59,1.51
				c1.13-2.1,2.39-3.92,4.03-5.65c1.66-1.75,3.19-3.55,4.07-5.82c0.49-1.27-1.15-2.31-2.2-1.69c-3.7,2.16-7.28,4.53-11.13,6.43
				c-1.93,0.95-3.92,1.75-5.99,2.31c-2.17,0.58-4.31,0.72-6.53,0.9c-2.54,0.21-5.07,0.64-7.62,0.76c-2.48,0.11-4.94,0.33-7.41,0.63
				c-4.69,0.58-9.36,1.16-13.9,2.52c-1.94,0.58-3.8,1.34-5.7,2.02c-1.55,0.55-3.16,1.11-4.54,2.03c-3.26,2.16-3.81,5.55-3.74,9.22
				c0.06,2.88,0.18,6.67,2.95,8.36c2.26,1.38,5.17,0.68,7.48-0.18c1.32-0.49,2.59-1.09,3.86-1.7c1.22-0.59,2.55-1.12,3.66-1.91
				c1.62-1.15,2.78-2.71,4.01-4.25c1.31-1.65,2.88-3.06,4.25-4.65c2.92-3.38,5.13-7.28,7.21-11.22c2.32-4.39,4.38-8.9,6.39-13.44
				c0.99-2.24,1.96-4.49,2.98-6.72c0.99-2.16,2.07-4.35,2.67-6.66c0.59-2.29,0.99-4.5,2.01-6.66c0.95-2.01,1.93-4,3.01-5.94
				c1.12-2,2.34-3.98,3.78-5.77c1.16-1.43,2.35-2.56,4.23-2.84c1.61-0.24,3.34-0.15,4.97-0.1c1.46,0.04,3.1,0.13,4.42,0.83
				c1.21,0.64,0.95,1.77,0.69,2.95c-0.33,1.5-0.85,2.99-1.51,4.38c-1.97,4.13-4.83,7.87-7.85,11.29c-3.05,3.46-6.37,6.63-10.05,9.42
				c-3.61,2.73-7.42,5.2-11.08,7.86c-1.79,1.3-3.54,2.65-5.23,4.08C1731.76,1030.82,1733.89,1032.94,1735.36,1031.7L1735.36,1031.7z
				"/>
		</g>
	</g>
	<g>
		<g>
			<path d="M1758.05,1055.36c0.76-0.59,1.29-0.8,2.18-1.03c0.55-0.14,0.58-0.16,1.11-0.17c0.1,0,0.2,0,0.31,0
				c0.07,0,0.39,0.04,0.12,0c0.09,0.02,0.19,0.04,0.28,0.06c0.04,0.01,0.38,0.14,0.21,0.06c-0.19-0.09,0.18,0.12,0.18,0.11
				c-0.1-0.06-0.12-0.17,0.01,0.02c0.01,0.02,0.16,0.22,0.05,0.05c0.06,0.08,0.11,0.18,0.16,0.27c-0.08-0.16,0.03,0.08,0.03,0.09
				c0.05,0.13,0.08,0.27,0.11,0.4c0.05,0.25,0.04,0.21,0.04,0.51c0-0.03-0.05,0.47-0.01,0.27c0.03-0.16-0.03,0.13-0.05,0.17
				c-0.04,0.09-0.02,0.1-0.14,0.24c-0.34,0.4-0.57,0.5-0.98,0.81c-0.47,0.36-0.88,0.73-1.28,1.17c-0.36,0.4-0.73,0.85-1.16,1.16
				c-0.8,0.56-1.71,0.89-2.41,1.6c-1.2,1.22-2.72,4.04-0.76,5.3c0.51,0.32,1.13,0.41,1.73,0.38c0.4-0.02,0.76-0.09,1.13-0.24
				c0.28-0.11,0.47-0.22,0.77-0.23c0.7-0.04,1.44,0.04,2.14,0.04c0.81,0,1.61,0,2.42,0c1.93,0,1.93-3,0-3
				c-1.37,0-2.75,0.04-4.12-0.02c-0.43-0.02-0.84-0.03-1.27,0.06c-0.33,0.07-0.6,0.23-0.92,0.34c-0.17,0.06-0.16,0.03-0.33,0.07
				c-0.05,0-0.1,0-0.16,0c0.15,0.03,0.17,0.03,0.07,0.01c-0.12-0.03-0.08-0.01,0.12,0.06c0.15,0.08,0.25,0.2,0.3,0.36
				c0.04,0.08,0.09,0.15,0.13,0.23c0.02,0.25,0.03,0.32,0.03,0.19c0.01-0.17-0.15,0.35-0.01,0.07c0.05-0.11,0.18-0.45,0.04-0.16
				c0.18-0.38,0.38-0.76,0.62-1.11c0.18-0.26,0.43-0.44,0.63-0.57c0.42-0.26,0.87-0.47,1.28-0.74c1.06-0.68,1.72-1.72,2.69-2.5
				c0.76-0.61,1.82-1.34,2.24-2.48c0.81-2.19-0.25-5-2.48-5.8c-2.05-0.74-4.89,0.06-6.57,1.35c-0.64,0.49-0.98,1.29-0.54,2.05
				C1756.36,1055.45,1757.4,1055.85,1758.05,1055.36L1758.05,1055.36z"/>
		</g>
	</g>
	<g>
		<g>
			<path d="M1772.28,1050.4c-0.28,0.27-0.84,0.46-1.26,0.67c-0.65,0.33-1.2,0.82-1.7,1.35c-1.02,1.07-1.81,2.32-2.31,3.71
				c-0.38,1.05-0.43,2.18-0.47,3.29c-0.03,0.97,0.02,1.97,0.25,2.92c0.23,0.97,0.71,1.91,1.47,2.57c0.95,0.83,2.16,1.1,3.39,1.13
				c2.49,0.06,4.55-1.72,5.23-4.09c0.2-0.69,0.26-1.41,0.38-2.11c0.15-0.89,0.26-1.77,0.26-2.67c0-1.77-0.3-3.52-0.51-5.27
				c-0.1-0.8-0.62-1.5-1.5-1.5c-0.74,0-1.6,0.69-1.5,1.5c0.31,2.55,0.68,4.98,0.3,7.54c-0.14,0.94-0.22,1.91-0.83,2.67
				c-0.12,0.15-0.25,0.3-0.39,0.43c-0.05,0.06-0.39,0.34-0.18,0.19c-0.07,0.05-0.5,0.28-0.21,0.16c-0.08,0.03-0.17,0.06-0.25,0.08
				c-0.03,0.01-0.39,0.08-0.21,0.05c0.18-0.03-0.13,0.01-0.17,0.01c-0.11,0-0.22,0.01-0.33,0c-0.21,0-0.43-0.01-0.65-0.03
				c-0.24-0.03-0.49-0.11-0.75-0.26c-0.2-0.11,0.16,0.15-0.01,0c-0.05-0.04-0.1-0.09-0.14-0.13c-0.06-0.06-0.12-0.12-0.17-0.19
				c0.18,0.22,0.04,0.04,0.01-0.01c-0.05-0.08-0.25-0.5-0.14-0.23c-0.07-0.17-0.12-0.34-0.17-0.52c-0.05-0.18-0.08-0.36-0.12-0.55
				c-0.05-0.3-0.01-0.09-0.01-0.03c-0.01-0.1-0.02-0.19-0.03-0.29c-0.03-0.39-0.04-0.78-0.03-1.17c0.01-0.77,0.02-1.56,0.23-2.3
				c0.33-1.13,1.01-2.13,1.83-2.96c0.81-0.82,1.97-1.05,2.81-1.86C1775.79,1051.18,1773.67,1049.06,1772.28,1050.4L1772.28,1050.4z"
				/>
		</g>
	</g>
	<g>
		<g>
			<path d="M1782.59,1052.72c0.04-0.17,0.1-0.14-0.06,0.04c-0.03,0.06-0.06,0.11-0.1,0.17c-0.13,0.08-0.14,0.09-0.05,0.04
				c0-0.06,0.09-0.02-0.04,0.01c0.07-0.01,0.14-0.04,0.21-0.06c0.04-0.01,0.34-0.06,0.17-0.04c-0.15,0.02,0.1,0,0.1,0
				c0.19-0.01,0.39-0.01,0.58,0c0.26,0.01,0.37,0.03,0.51,0.13c0.01,0.01,0.13,0.12,0.08,0.05c0.07,0.11,0.21,0.36,0.22,0.39
				c0.65,1.62-0.01,3.61-0.83,5.14c-0.67,1.26-1.49,2.33-2.29,3.5c-0.81,1.19-1.44,3.01,0.11,3.94c0.9,0.54,2.12,0.36,3.06,0.03
				c0.52-0.18,1.06-0.47,1.62-0.55c0.57-0.08,1.18,0.03,1.76,0.04c1.93,0.03,1.93-2.97,0-3c-1.25-0.02-2.38-0.06-3.57,0.39
				c-0.39,0.15-0.81,0.36-1.23,0.42c-0.1,0.01-0.21,0-0.31,0.01c-0.11,0.01-0.16-0.07-0.04,0c0.39,0.23,0.62,0.33,0.73,0.85
				c0.01,0.03-0.03,0.32,0.01,0.19c0.07-0.24-0.03,0.03-0.04,0.07c0.03-0.07,0.06-0.14,0.1-0.21c0.16-0.28,0.33-0.56,0.52-0.82
				c0.35-0.49,0.73-0.95,1.07-1.45c1.22-1.79,2.27-3.91,2.52-6.08c0.23-1.94-0.2-4.57-2.12-5.57c-1.75-0.91-5.03-0.68-5.6,1.59
				C1779.23,1053.8,1782.12,1054.6,1782.59,1052.72L1782.59,1052.72z"/>
		</g>
	</g>
	<g>
		<g>
			<path d="M1792.62,1056.66c-0.01,0.1-0.04,0.19-0.1,0.27c0.09-0.14,0.08-0.15-0.01-0.01c0.11-0.14,0.26-0.26,0.39-0.37
				c0.26-0.23,0.51-0.45,0.73-0.72c0.32-0.38,0.59-0.79,0.85-1.2c0.13-0.21,0.26-0.42,0.4-0.62c0.03-0.05,0.41-0.52,0.1-0.15
				c0.33-0.39,0.67-0.76,1.04-1.12c0.13-0.11,0.11-0.09-0.06,0.04c0.05-0.04,0.11-0.08,0.16-0.11c0.1-0.06,0.49-0.24,0.04-0.05
				c0.15-0.06,0.32,0-0.11,0c-0.34,0-0.65-0.18-0.82-0.47c0.07,0.13,0.07,0.1-0.02-0.1c0.03,0.07,0.05,0.15,0.07,0.23
				c0.09,0.29,0-0.23,0.03,0.22c0.04,0.52,0.08,1.03,0.09,1.55c0.03,0.92,0.03,1.85,0.01,2.77c-0.04,1.98-0.16,3.95-0.16,5.93
				c0,0.81,0.69,1.5,1.5,1.5c0.81,0,1.5-0.69,1.5-1.5c0-1.81,0.1-3.62,0.15-5.43c0.05-1.85,0.14-3.81-0.19-5.64
				c-0.13-0.72-0.49-1.39-1.14-1.78c-0.69-0.42-1.54-0.3-2.22,0.05c-1,0.51-1.77,1.48-2.43,2.36c-0.5,0.68-0.83,1.4-1.45,1.95
				c-0.75,0.66-1.35,1.36-1.36,2.42c-0.01,0.81,0.69,1.5,1.5,1.5C1791.94,1058.16,1792.61,1057.48,1792.62,1056.66L1792.62,1056.66z
				"/>
		</g>
	</g>
	<g>
		<g>
			<path d="M1802.4,1064.67c1.93,0,1.93-3,0-3C1800.47,1061.67,1800.46,1064.67,1802.4,1064.67L1802.4,1064.67z"/>
		</g>
	</g>
	<g>
		<g>
			<path d="M1278.88-114.66c1.93,0,1.93-3,0-3C1276.95-117.66,1276.95-114.66,1278.88-114.66L1278.88-114.66z"/>
		</g>
	</g>
</g>
</svg>
